<?xml version="1.0" encoding="utf-8"?>
<!-- Generator: Adobe Illustrator 16.0.4, SVG Export Plug-In . SVG Version: 6.00 Build 0)  -->
<!DOCTYPE svg PUBLIC "-//W3C//DTD SVG 1.1//EN" "http://www.w3.org/Graphics/SVG/1.1/DTD/svg11.dtd">
<svg version="1.1" id="Layer_1" xmlns="http://www.w3.org/2000/svg" xmlns:xlink="http://www.w3.org/1999/xlink" x="0px" y="0px"
	 width="316.333px" height="100px" viewBox="0 0 316.333 100" enable-background="new 0 0 316.333 100" xml:space="preserve">
<path fill="#FFFFFF" d="M196.668,63.41v8.109h-5.627V47.263h8.557c1.709,0,3.176,0.202,4.4,0.606
	c1.229,0.405,2.238,0.962,3.031,1.674c0.795,0.709,1.381,1.548,1.756,2.511c0.381,0.969,0.568,2.014,0.568,3.133
	c0,1.211-0.193,2.318-0.584,3.33c-0.387,1.01-0.982,1.877-1.783,2.596c-0.797,0.721-1.812,1.283-3.035,1.689
	c-1.227,0.408-2.68,0.607-4.354,0.607H196.668z M196.668,59.164h2.93c1.463,0,2.518-0.348,3.164-1.049
	c0.643-0.695,0.965-1.672,0.965-2.928c0-0.555-0.082-1.061-0.25-1.514c-0.166-0.457-0.42-0.85-0.758-1.174
	c-0.338-0.328-0.766-0.582-1.279-0.76c-0.52-0.178-1.131-0.264-1.842-0.264h-2.93V59.164z"/>
<path fill="#FFFFFF" d="M216.854,67.023h8.988v4.496h-14.617V47.263h5.629V67.023z"/>
<path fill="#FFFFFF" d="M251.112,71.52h-4.363c-0.486,0-0.891-0.113-1.205-0.34c-0.318-0.229-0.535-0.521-0.658-0.877l-1.434-4.227
	h-9.221l-1.434,4.227c-0.111,0.312-0.326,0.592-0.646,0.844c-0.324,0.25-0.719,0.373-1.188,0.373h-4.393l9.389-24.256h5.762
	L251.112,71.52z M235.528,62.244h6.625l-2.229-6.641c-0.146-0.422-0.316-0.918-0.512-1.49c-0.191-0.568-0.385-1.189-0.57-1.857
	c-0.18,0.678-0.361,1.307-0.549,1.881c-0.193,0.578-0.371,1.08-0.535,1.502L235.528,62.244z"/>
<path fill="#FFFFFF" d="M255.594,47.296c0.17,0.023,0.32,0.065,0.453,0.127c0.135,0.06,0.26,0.145,0.381,0.257
	c0.123,0.11,0.262,0.258,0.42,0.449l11.52,14.566c-0.045-0.465-0.08-0.918-0.098-1.355c-0.025-0.438-0.037-0.854-0.037-1.242V47.263
	h4.959V71.52h-2.93c-0.432,0-0.797-0.066-1.096-0.201c-0.303-0.133-0.59-0.377-0.869-0.73L256.86,56.135
	c0.039,0.424,0.062,0.836,0.086,1.24c0.02,0.404,0.033,0.787,0.033,1.143V71.52h-4.961V47.263h2.963
	C255.225,47.263,255.428,47.273,255.594,47.296z"/>
<path fill="#FFFFFF" d="M291.747,47.263v4.327h-9.951v5.66h7.621v4.164h-7.621v5.777h9.951v4.328h-15.617V47.263H291.747z"/>
<path fill="#FFFFFF" d="M312.586,47.263v4.461h-6.826V71.52h-5.625V51.725h-6.824v-4.461H312.586z"/>
<path fill="#FFFFFF" d="M15.087,64.797H8.769c0.836,2.871,2.389,5.443,4.661,7.715c3.623,3.623,7.979,5.434,13.075,5.434
	c1.018,0,2.005-0.076,2.963-0.221c3.838-0.58,7.197-2.314,10.076-5.213c2.287-2.271,3.851-4.844,4.693-7.715h-2.563h-3.749H15.087z"
	/>
<g>
	<path fill="#FFFFFF" d="M11.603,56.217H8.302c-0.121,0.725-0.203,1.465-0.24,2.225h3.924h1.967h28.404h2.592
		c-0.037-0.76-0.119-1.5-0.241-2.225"/>
	<path fill="#FFFFFF" d="M8.062,60.506c0.037,0.76,0.119,1.5,0.24,2.227h3.432h2.601h27.79h2.583
		c0.122-0.727,0.204-1.467,0.242-2.227"/>
</g>
<path fill="#FFFFFF" d="M44.239,54.15c-0.844-2.879-2.406-5.461-4.695-7.75c-2.871-2.871-6.222-4.594-10.047-5.174
	c-0.967-0.146-1.964-0.224-2.992-0.224c-5.096,0-9.452,1.8-13.075,5.397c-2.273,2.289-3.826,4.872-4.663,7.75H44.239z"/>
<g>
	<path fill="#FFFFFF" d="M6.965,59.475c0-9.745,7.317-17.841,16.839-19.265c-0.236-0.009-0.474-0.019-0.712-0.019
		c-10.685,0-19.345,8.634-19.345,19.284c0,10.648,8.66,19.283,19.345,19.283c0.239,0,0.477-0.01,0.714-0.018
		C14.283,77.316,6.965,69.219,6.965,59.475z"/>
</g>
<g>
	<path fill="#FFFFFF" d="M39.058,58.441c-0.061-0.764-0.189-1.508-0.381-2.225H14.335c-0.191,0.717-0.32,1.461-0.383,2.225H39.058z"
		/>
	<path fill="#FFFFFF" d="M39.058,60.506H13.952c0.062,0.764,0.19,1.508,0.382,2.227h24.343
		C38.868,62.014,38.997,61.27,39.058,60.506z"/>
	<path fill="#FFFFFF" d="M26.505,72.072c5.056,0,9.413-2.979,11.42-7.275H15.087C17.093,69.094,21.45,72.072,26.505,72.072z"/>
</g>
<path fill="#FFFFFF" d="M75.332,58.469v1.928H57.213c0.174,2.713,0.99,4.779,2.451,6.201c1.465,1.422,3.504,2.131,6.115,2.131
	c1.516,0,2.98-0.186,4.404-0.557c1.418-0.373,2.826-0.928,4.229-1.672v3.729c-1.412,0.6-2.863,1.055-4.348,1.371
	c-1.484,0.312-2.992,0.469-4.521,0.469c-3.826,0-6.855-1.113-9.09-3.34c-2.236-2.229-3.352-5.24-3.352-9.039
	c0-3.928,1.059-7.043,3.182-9.348c2.119-2.309,4.977-3.461,8.576-3.461c3.225,0,5.779,1.039,7.656,3.117
	C74.396,52.076,75.332,54.898,75.332,58.469 M71.393,57.312c-0.029-2.158-0.631-3.879-1.811-5.16c-1.178-1.287-2.736-1.93-4.68-1.93
	c-2.199,0-3.959,0.622-5.277,1.866c-1.322,1.24-2.082,2.99-2.281,5.246L71.393,57.312z"/>
<path fill="#FFFFFF" d="M95.777,48.382v3.682c-1.117-0.613-2.236-1.074-3.352-1.381c-1.127-0.309-2.256-0.461-3.398-0.461
	c-2.555,0-4.541,0.811-5.953,2.432c-1.414,1.619-2.121,3.895-2.121,6.822c0,2.926,0.707,5.201,2.121,6.82
	c1.412,1.623,3.398,2.432,5.953,2.432c1.143,0,2.271-0.154,3.398-0.461c1.115-0.307,2.234-0.768,3.352-1.381v3.641
	c-1.1,0.514-2.242,0.898-3.418,1.154c-1.18,0.26-2.432,0.387-3.762,0.387c-3.609,0-6.482-1.133-8.609-3.404
	c-2.125-2.27-3.191-5.334-3.191-9.188c0-3.914,1.076-6.99,3.225-9.233c2.15-2.24,5.094-3.363,8.836-3.363
	c1.213,0,2.398,0.126,3.555,0.375C93.568,47.505,94.689,47.88,95.777,48.382"/>
<rect x="99.338" y="38.122" fill="#FFFFFF" width="3.941" height="33.326"/>
<path fill="#FFFFFF" d="M108.232,47.458h3.945v23.991h-3.945V47.458z"/>
<path fill="#FFFFFF" d="M120.947,67.85v12.723h-3.967V47.458h3.967V51.1c0.824-1.426,1.873-2.487,3.135-3.18
	c1.266-0.691,2.773-1.039,4.531-1.039c2.912,0,5.277,1.157,7.098,3.471c1.824,2.313,2.73,5.354,2.73,9.125
	c0,3.77-0.906,6.811-2.73,9.123c-1.82,2.312-4.186,3.469-7.098,3.469c-1.758,0-3.266-0.346-4.531-1.039
	C122.82,70.34,121.771,69.277,120.947,67.85 M134.355,59.477c0-2.9-0.6-5.172-1.789-6.822c-1.193-1.65-2.83-2.475-4.916-2.475
	s-3.725,0.825-4.916,2.475c-1.193,1.65-1.787,3.922-1.787,6.822c0,2.898,0.594,5.172,1.787,6.82c1.191,1.648,2.83,2.473,4.916,2.473
	s3.723-0.824,4.916-2.473C133.756,64.648,134.355,62.375,134.355,59.477"/>
<path fill="#FFFFFF" d="M156.979,48.166v3.727c-1.111-0.57-2.271-1-3.471-1.286c-1.199-0.285-2.438-0.428-3.723-0.428
	c-1.957,0-3.428,0.3-4.404,0.899c-0.98,0.6-1.465,1.5-1.465,2.699c0,0.916,0.348,1.633,1.049,2.152
	c0.701,0.521,2.104,1.018,4.219,1.49l1.348,0.299c2.801,0.6,4.787,1.445,5.967,2.539c1.18,1.092,1.77,2.615,1.77,4.572
	c0,2.227-0.883,3.99-2.65,5.291c-1.76,1.299-4.186,1.947-7.271,1.947c-1.281,0-2.619-0.123-4.016-0.375
	c-1.391-0.248-2.859-0.623-4.4-1.123V66.5c1.459,0.758,2.891,1.324,4.305,1.705c1.416,0.375,2.816,0.564,4.201,0.564
	c1.854,0,3.283-0.316,4.281-0.949c1.004-0.639,1.498-1.533,1.498-2.691c0-1.07-0.357-1.891-1.078-2.463
	c-0.725-0.57-2.305-1.121-4.746-1.648l-1.369-0.322c-2.441-0.514-4.205-1.303-5.291-2.365c-1.084-1.062-1.629-2.525-1.629-4.381
	c0-2.256,0.801-3.997,2.402-5.225c1.594-1.229,3.867-1.844,6.807-1.844c1.457,0,2.83,0.105,4.115,0.32
	C154.708,47.417,155.893,47.738,156.979,48.166"/>
<path fill="#FFFFFF" d="M181.772,58.469v1.928h-18.123c0.174,2.713,0.99,4.779,2.451,6.201c1.465,1.422,3.504,2.131,6.115,2.131
	c1.516,0,2.982-0.186,4.404-0.557c1.418-0.373,2.83-0.928,4.232-1.672v3.729c-1.416,0.6-2.867,1.055-4.352,1.371
	c-1.484,0.312-2.992,0.469-4.518,0.469c-3.826,0-6.861-1.113-9.094-3.34c-2.236-2.229-3.352-5.24-3.352-9.039
	c0-3.928,1.062-7.043,3.182-9.348c2.119-2.309,4.979-3.461,8.576-3.461c3.229,0,5.779,1.039,7.66,3.117
	C180.833,52.076,181.772,54.898,181.772,58.469 M177.829,57.312c-0.029-2.158-0.631-3.879-1.811-5.16
	c-1.178-1.287-2.74-1.93-4.68-1.93c-2.199,0-3.959,0.622-5.277,1.866c-1.318,1.24-2.082,2.99-2.281,5.246L177.829,57.312z"/>
<g>
	<g>
		<path fill="#FFFFFF" d="M162.116,29.258l1.828-0.609l-1.828-0.609l-0.973-2.59l-0.969,2.59l-1.828,0.609l1.828,0.609l0.969,2.59
			L162.116,29.258z M161.143,31.848"/>
	</g>
	<path fill="#FFFFFF" d="M164.725,33.848"/>
	<path fill="#FFFFFF" d="M156.971,34.442l-1.828,0.609l1.828,0.609l0.973,2.59l0.973-2.59l1.828-0.609l-1.828-0.609l-0.973-2.594
		L156.971,34.442z M157.944,31.848"/>
	<path fill="#FFFFFF" d="M151.944,30.25l1.309,0.457l0.691,1.941l0.695-1.941l1.305-0.457l-1.305-0.457l-0.695-1.945l-0.691,1.945
		L151.944,30.25z M153.252,29.793"/>
</g>
<g>
	<circle fill="#FFFFFF" cx="134.704" cy="17.923" r="4.125"/>
	<path fill="#FFFFFF" d="M110.336,31.994c1.135-0.071,1.999-1.05,1.927-2.188c-0.071-1.135-1.051-2.002-2.186-1.93
		c-1.139,0.071-2.001,1.054-1.93,2.188C108.219,31.203,109.198,32.066,110.336,31.994z"/>
	<path fill="#FFFFFF" d="M138.467,30.443c-0.003,0.002-0.006,0.004-0.01,0.006c-1.363-4.562-5.725-7.763-10.684-7.45
		c-5.771,0.363-10.152,5.337-9.789,11.108c0.074,1.173,0.344,2.286,0.77,3.316c0.002,0.006,0.005,0.011,0.011,0.026
		c0.066,0.158,0.147,0.308,0.22,0.462c0.428,0.836,1.456,2.558,3.204,3.92c1.918,1.432,4.325,2.232,6.899,2.07
		c5.124-0.323,9.144-4.284,9.725-9.208C138.997,32.937,138.711,31.376,138.467,30.443z M128.625,42.644
		c-0.114,0-0.228-0.005-0.34-0.009c4.54-0.678,8.027-4.539,8.027-9.185c0-4.646-3.489-8.507-8.029-9.186
		c0.114-0.003,0.227-0.008,0.342-0.008c5.094,0,9.223,4.116,9.223,9.194C137.848,38.527,133.719,42.644,128.625,42.644z"/>
	<path fill="#FFFFFF" d="M116.178,38.985c-0.812,0.052-1.233-0.046-1.446-0.13c0.041-0.252,0.344-1.133,2.564-2.891
		c0.201-0.149,0.323-0.394,0.307-0.662c-0.026-0.413-0.377-0.739-0.787-0.714l-0.021,0.002c-0.024,0.001-0.049,0.006-0.074,0.011
		c-0.041,0.007-0.083,0.017-0.12,0.029c-0.856,0.269-7.64,2.475-9.274,5.618c-0.397,0.768-0.476,1.543-0.234,2.298
		c0.422,1.302,2.326,1.333,3.724,1.245c2.566-0.162,6.326-1.021,10.043-2.09c-0.776-0.781-1.898-2.022-2.381-3.084
		C117.63,38.808,116.844,38.943,116.178,38.985z"/>
	<path fill="#FFFFFF" d="M150.026,24.553c-0.008-0.021-0.018-0.046-0.025-0.063c-0.391-0.798-1.449-1.096-3.436-0.971
		c-3.514,0.221-8.919,1.703-9.147,1.767c-0.373,0.102-0.61,0.468-0.552,0.851c0.06,0.384,0.397,0.66,0.782,0.644
		c2.434-0.094,4.563,0.3,4.842,0.708c-0.188,0.51-1.494,1.459-3.338,2.555c0.459,1.122,0.502,2.992,0.476,4.147
		C146.268,30.895,151.187,27.576,150.026,24.553z"/>
</g>
</svg>
